<svg width="30" height="30" viewBox="0 0 30 30" fill="none" xmlns="http://www.w3.org/2000/svg">
<path d="M6.5625 22.5C6.5625 22.7486 6.66127 22.9871 6.83709 23.1629C7.0129 23.3387 7.25136 23.4375 7.5 23.4375C7.74864 23.4375 7.9871 23.3387 8.16291 23.1629C8.33873 22.9871 8.4375 22.7486 8.4375 22.5V16.41L20.1881 23.2275C21.1631 23.7937 22.5 23.1469 22.5 21.9225L22.5 8.0775C22.5 6.85312 21.1631 6.20625 20.1881 6.7725L8.4375 13.59V7.5C8.4375 7.25136 8.33873 7.0129 8.16291 6.83709C7.9871 6.66127 7.74864 6.5625 7.5 6.5625C7.25136 6.5625 7.0129 6.66127 6.83709 6.83709C6.66127 7.0129 6.5625 7.25136 6.5625 7.5L6.5625 22.5ZM20.625 21.3131L9.7425 15L20.625 8.68688V21.3131Z" fill="white"/>
</svg>
