<svg width="60" height="60" viewBox="0 0 60 60" fill="none" xmlns="http://www.w3.org/2000/svg">
<g clip-path="url(#clip0_9_56)">
<path d="M30 56.25C23.0381 56.25 16.3613 53.4844 11.4384 48.5616C6.51562 43.6387 3.75 36.9619 3.75 30C3.75 23.0381 6.51562 16.3613 11.4384 11.4384C16.3613 6.51562 23.0381 3.75 30 3.75C36.9619 3.75 43.6387 6.51562 48.5616 11.4384C53.4844 16.3613 56.25 23.0381 56.25 30C56.25 36.9619 53.4844 43.6387 48.5616 48.5616C43.6387 53.4844 36.9619 56.25 30 56.25ZM30 60C37.9565 60 45.5871 56.8393 51.2132 51.2132C56.8393 45.5871 60 37.9565 60 30C60 22.0435 56.8393 14.4129 51.2132 8.7868C45.5871 3.16071 37.9565 0 30 0C22.0435 0 14.4129 3.16071 8.7868 8.7868C3.16071 14.4129 0 22.0435 0 30C0 37.9565 3.16071 45.5871 8.7868 51.2132C14.4129 56.8393 22.0435 60 30 60Z" fill="white"/>
<path d="M23.5163 18.9563C23.8229 18.7983 24.1673 18.7281 24.5113 18.7532C24.8553 18.7784 25.1858 18.8979 25.4663 19.0988L38.5913 28.4738C38.8343 28.6472 39.0324 28.8762 39.1691 29.1417C39.3058 29.4071 39.3771 29.7014 39.3771 30C39.3771 30.2986 39.3058 30.5929 39.1691 30.8584C39.0324 31.1238 38.8343 31.3528 38.5913 31.5263L25.4663 40.9013C25.1859 41.1019 24.8556 41.2214 24.5117 41.2465C24.1679 41.2717 23.8237 41.2015 23.5171 41.0438C23.2106 40.886 22.9534 40.6468 22.774 40.3524C22.5945 40.058 22.4997 39.7198 22.5 39.375V20.625C22.4996 20.2803 22.5943 19.9422 22.7736 19.6478C22.9529 19.3534 23.2098 19.1141 23.5163 18.9563Z" fill="white"/>
</g>
<defs>
<clipPath id="clip0_9_56">
<rect width="60" height="60" fill="white"/>
</clipPath>
</defs>
</svg>
