<svg width="30" height="30" viewBox="0 0 30 30" fill="none" xmlns="http://www.w3.org/2000/svg">
<path d="M23.4375 7.5C23.4375 7.25136 23.3387 7.0129 23.1629 6.83709C22.9871 6.66127 22.7486 6.5625 22.5 6.5625C22.2514 6.5625 22.0129 6.66127 21.8371 6.83709C21.6613 7.0129 21.5625 7.25136 21.5625 7.5V13.59L9.81187 6.7725C8.83687 6.20625 7.5 6.85313 7.5 8.0775V21.9225C7.5 23.1469 8.83687 23.7937 9.81187 23.2275L21.5625 16.41V22.5C21.5625 22.7486 21.6613 22.9871 21.8371 23.1629C22.0129 23.3387 22.2514 23.4375 22.5 23.4375C22.7486 23.4375 22.9871 23.3387 23.1629 23.1629C23.3387 22.9871 23.4375 22.7486 23.4375 22.5V7.5ZM9.375 8.68687L20.2575 15L9.375 21.3131V8.68687Z" fill="white"/>
</svg>
