<svg width="18" height="24" viewBox="0 0 18 24" fill="none" xmlns="http://www.w3.org/2000/svg">
<path d="M1.51625 0.956259C1.82294 0.798333 2.16725 0.728076 2.5113 0.753217C2.85534 0.778359 3.18578 0.897925 3.46625 1.09876L16.5913 10.4738C16.8343 10.6472 17.0324 10.8762 17.1691 11.1417C17.3058 11.4071 17.3771 11.7014 17.3771 12C17.3771 12.2986 17.3058 12.5929 17.1691 12.8584C17.0324 13.1238 16.8343 13.3528 16.5913 13.5263L3.46625 22.9013C3.18588 23.1019 2.8556 23.2214 2.51173 23.2465C2.16786 23.2717 1.82372 23.2015 1.51714 23.0438C1.21056 22.886 0.953408 22.6468 0.773962 22.3524C0.594516 22.058 0.499721 21.7198 0.500001 21.375V2.62501C0.49964 2.28032 0.594302 1.9422 0.773586 1.6478C0.95287 1.35341 1.20984 1.11413 1.51625 0.956259Z" fill="white"/>
</svg>
